OpenSim_Sub11_CSPreOp_RCS.mot
version=1
nRows=26
nColumns=11
inDegrees=no
endheader
time	Top_Thigh	Med_Thigh	Bot_Thigh	Top_Shank	2nd_Top_Shank	2nd_Bot_Shank	Bot_Shank	BNOx	BNOy	BNOZ
27.75000000	1927.36761577	1697.68291957	1728.67678490	1318.82902744	1464.92368354	1271.74025316	1211.48234516	15.76813375	-73.35807671	-40.46352610
27.76000000	1924.82490583	1696.28338461	1728.04460077	1317.01559135	1466.13267498	1274.13589769	1212.57028076	16.25876401	-73.39307778	-44.88591030
27.77000000	1922.28614365	1694.89694743	1727.44711984	1315.28262189	1467.30752481	1276.54416972	1213.64884234	16.77314572	-73.43285783	-50.06322559
27.78000000	1919.76503378	1693.53160121	1726.89103559	1313.63473573	1468.43411407	1278.94581123	1214.70820792	17.30579273	-73.47636910	-56.00903719
27.79000000	1917.27528072	1692.19533913	1726.38304153	1312.07654947	1469.49832377	1281.32156417	1215.73855550	17.85121888	-73.52256381	-62.73691033
27.80000000	1914.83058902	1690.89615434	1725.92983116	1310.61267978	1470.48603493	1283.65217052	1216.73006310	18.40393801	-73.57039419	-70.26041025
27.81000000	1912.44466319	1689.64204002	1725.53809796	1309.24774327	1471.38312858	1285.91837224	1217.67290872	18.95846396	-73.61881246	-78.59310218
27.82000000	1910.13120777	1688.44098934	1725.21453545	1307.98635658	1472.17548573	1288.10091132	1218.55727039	19.50931057	-73.66677083	-87.74855135
27.83000000	1907.90392728	1687.30099547	1724.96583712	1306.83313636	1472.84898741	1290.18052971	1219.37332610	20.05099169	-73.71322155	-97.74032299
27.84000000	1905.77652625	1686.23005159	1724.79869647	1305.79269923	1473.38951465	1292.13796939	1220.11125387	20.57802116	-73.75711682	-108.58198234
27.85000000	1903.76270921	1685.23615086	1724.71980699	1304.86966183	1473.78294845	1293.95397233	1220.76123171	21.08491282	-73.79740888	-120.28709464
27.86000000	1901.87618068	1684.32728645	1724.73586219	1304.06864080	1474.01516985	1295.60928049	1221.31343763	21.56618051	-73.83304995	-132.86922510
27.87000000	1900.13064520	1683.51145154	1724.85355556	1303.39425277	1474.07205987	1297.08463585	1221.75804964	22.01633807	-73.86299224	-146.34193898
27.88000000	1898.53971640	1682.79657214	1725.07949236	1302.85111421	1473.93967861	1298.36092951	1222.08533945	22.42993579	-73.88619525	-160.71781916
27.89000000	1897.10997590	1682.18537771	1725.41345073	1302.44382779	1473.61794169	1299.43059192	1222.29282774	22.80434365	-73.90217953	-175.93344495
27.90000000	1895.83608554	1681.67178927	1725.84363633	1302.17697289	1473.13025079	1300.30561345	1222.39032277	23.14171122	-73.91141677	-191.79656432
27.91000000	1894.71155255	1681.24887458	1726.35713388	1302.05512661	1472.50228258	1300.99987918	1222.38882300	23.44465102	-73.91447075	-208.10244592
27.92000000	1893.72988417	1680.90970141	1726.94102808	1302.08286604	1471.75971372	1301.52727416	1222.29932693	23.71577560	-73.91190529	-224.64635843
27.93000000	1892.88458763	1680.64733753	1727.58240365	1302.26476830	1470.92822090	1301.90168347	1222.13283302	23.95769749	-73.90428417	-241.22357051
27.94000000	1892.16917016	1680.45485070	1728.26834528	1302.60541047	1470.03348076	1302.13699216	1221.90033976	24.17302924	-73.89217120	-257.62935083
27.95000000	1891.57713899	1680.32530869	1728.98593770	1303.10936967	1469.10116999	1302.24708531	1221.61284562	24.36438337	-73.87613018	-273.65896805
27.96000000	1891.10200135	1680.25177928	1729.72226559	1303.78122298	1468.15696525	1302.24584797	1221.28134908	24.53437242	-73.85672490	-289.10769085
27.97000000	1890.73726448	1680.22733022	1730.46441368	1304.62554753	1467.22654320	1302.14716522	1220.91684862	24.68560894	-73.83451916	-303.77078789
27.98000000	1890.47643561	1680.24502929	1731.19946666	1305.64692039	1466.33558052	1301.96492211	1220.53034272	24.82070545	-73.81007677	-317.44352784
27.99000000	1890.31302197	1680.29794425	1731.91450925	1306.84991869	1465.50975387	1301.71300372	1220.13282986	24.94227450	-73.78396153	-329.92117937
28	1890.24053079	1680.37914288	1732.59662616	1308.23911951	1464.77473991	1301.40529510	1219.73530852	25.05292862	-73.75673722	-340.99901114
